# xmcd
#
# Track frame offsets:
# 150
# 23655
# 38907
# 58307
# 73797
# 93480
# 108407
# 119390
# 143087
# 156057
#
# Disc length: 2556 seconds
#
#
# Revision: 1
# Processed by: cddbd v1.5.2PL0 Copyright (c) Steve Scherf et al.
# Submitted via: FreeRIP 2.951 
#
DISCID=8809fa0a
DTITLE=De Los Andes Al Mundo - De Los Andes Al Mundo
DYEAR=2001
DGENRE=Andina
TTITLE0=El Valle De La Luna
TTITLE1=Encuentros
TTITLE2=El Condor Pasa
TTITLE3=Camino A San Francisco
TTITLE4=Elay Pue
TTITLE5=Galopera
TTITLE6=Jaiña
TTITLE7=Mensajero Del Silencio
TTITLE8=Mallku
TTITLE9=Concierto Para Una Voz - El Condor Pasa - Sonidos Del Silencio - Camino A San Francisco
EXTD=
EXTT0=
EXTT1=
EXTT2=
EXTT3=
EXTT4=
EXTT5=
EXTT6=
EXTT7=
EXTT8=
EXTT9=
PLAYORDER=
